<?xml version="1.0" encoding="utf-8"?>
<!-- Generator: Adobe Illustrator 22.0.1, SVG Export Plug-In . SVG Version: 6.00 Build 0)  -->
<svg version="1.1" id="Layer_1" xmlns="http://www.w3.org/2000/svg" xmlns:xlink="http://www.w3.org/1999/xlink" x="0px" y="0px"
	 viewBox="0 0 1366 768" style="enable-background:new 0 0 1366 768;" xml:space="preserve">
<style type="text/css">
	.st0{fill:none;stroke:#000000;stroke-miterlimit:10;}
	.st1{fill:#42210B;}
	.st2{fill:#6A3F24;}
	.st3{fill:#8CC63F;}
	.st4{fill:#A2D45E;}
	.st5{fill:#73C3D5;stroke:#000000;stroke-width:6.300000e-02;stroke-miterlimit:10;}
	.st6{fill:#00263A;stroke:#000000;stroke-width:6.271360e-02;stroke-miterlimit:10;}
	.st7{font-family:'Futura-CondensedExtraBold';}
	.st8{font-size:35.709px;}
	.st9{fill:#6A3F24;stroke:#000000;stroke-width:6.300000e-02;stroke-miterlimit:10;}
	.st10{fill:#A35F3A;stroke:#000000;stroke-width:6.300000e-02;stroke-miterlimit:10;}
	.st11{font-size:25px;}
	.st12{fill:#C69C6D;stroke:#000000;stroke-width:6.300000e-02;stroke-miterlimit:10;}
	.st13{fill:#1B1464;}
	.st14{fill:none;}
	.st15{fill:#A2A100;}
	.st16{font-size:26.5154px;}
	.st17{fill:#FF0000;stroke:#000000;stroke-width:6.300000e-02;stroke-miterlimit:10;}
	.st18{fill:#7A1C24;stroke:#000000;stroke-width:6.300000e-02;stroke-miterlimit:10;}
	.st19{fill:#FBB03B;stroke:#000000;stroke-width:5.800000e-02;stroke-miterlimit:10;}
	.st20{fill:#998675;stroke:#000000;stroke-width:5.800000e-02;stroke-miterlimit:10;}
	.st21{font-size:33.4992px;}
	.st22{fill:#FFFF00;stroke:#000000;stroke-width:6.271360e-02;stroke-miterlimit:10;}
	.st23{fill:url(#SVGID_1_);}
	.st24{fill:#FFFF00;stroke:#00263A;stroke-width:0.5;stroke-miterlimit:10;}
	.st25{font-size:31.9855px;}
	.st26{fill:#FF0000;stroke:#000000;stroke-width:6.271360e-02;stroke-miterlimit:10;}
	.st27{fill:#7A1C24;stroke:#000000;stroke-width:6.271360e-02;stroke-miterlimit:10;}
</style>
<g id="game2_1_">
	<path class="st0" d="M1241.7,491.9c-10,7.1,6.7,12.4-2.9,24.3s-0.5,14.3-0.5,14.3"/>
	<path class="st1" d="M1138.8,579.9h55.2l-13.2-19.9l19.9-83.2h-61.9"/>
	<path class="st2" d="M1174.8,579.9h-55.2l13.2-19.9l-19.9-83.2h61.9"/>
	<path class="st3" d="M1158.5,202.9c69.9,0,90.6,49.3,85.4,74.4c36.1,0,94,46.1,52.1,109.9c31.4,49.5,35.5,110.2-37.4,117.6
		c-72.9,7.4-69.3-12.9-69.3-12.9s-14.5,5.7-30.9,7"/>
	<path class="st4" d="M1158.5,202.9c-69.9,0-90.6,49.3-85.4,74.4c-54.2-17.7-88.5,77.3-35.1,110.9c-63.3,8.1-52.5,109.3,20.4,116.6
		c72.9,7.4,67.2-7.1,67.2-7.1s18.1,1.4,32.9,1.3"/>
	
		<image style="overflow:visible;enable-background:new    ;" width="309" height="92" xlink:href="E311E50E3ECB6C3D.png"  transform="matrix(1 0 0 1 1001.8534 542.862)">
	</image>
	<path class="st5" d="M1235,527.4c0.8,0.1,0.6,1,0.9,1.5c0.4,0.5,1.8,2.4,1.7,3.1s-0.9,3.3-1.6,3.6c0.5,1.1,2.8,5.9,5,7.1
		c2.2,1.2,4.4,1.6,5.2,1.6c0.8,0,3.2-1.1,3.7-1.8c0.6-0.7,2.2-1.8,2.8-1.4s0.8,0.3,0.6,0.7c-0.2,0.4,0.5,0.3,0.5,0.9
		c0,0.6,0,3.5-1,5.9c-0.5,0.4-0.6,3.2-1,3.7c-0.3,0.4-0.3-0.6-0.5-0.2s-1.4,6.1-2.3,6.6c0.1,1.2-2,5.9-2.6,6.2
		c-0.3,0.7-1.1,2-2.6,2.2s-43.4-18.7-46.6-20.4s-11-6.5-11.3-7c-0.2-0.5-0.4-2.6,0.3-3.5c0.7-0.9,1.2-2,1.4-1.9
		c0.2,0-0.1-0.4,0.2-0.5c0.3-0.1,0.6-0.3,0.7-0.2s1.3-2,2-2.1c0.7,0,0.5-0.4,1.4-0.3s12.3,2.7,12.5,2.4c0.3-0.3,0.7-0.6,1-0.5
		s2.3,0.6,2.4,0.2c0.2-0.4,0.6-1,1.5-0.7s0.7,0.6,0.7,0.9c0,0.2,0.1,0.4,0.7,0.1s1-1.3,1.6-1.4s1.6-0.4,1.6,0s-0.2,0.9,0.2,0.7
		s-0.1-0.2,1.2-0.7c1.3-0.5,2.6-0.5,2.6-0.3s0.4,0.7,0.7,0.1s0.2-0.6,1.1-0.6s0.9,0.1,1,0.4c0,0.3-0.5,1,0.4,0.1
		c0.8-0.9,2.4-0.9,2.4-0.6c0,0.3,0.5-1,1.1-1s0.8,0.5,1.2,0.3c0.4-0.2,1.6-0.7,2.1-0.6C1229.9,528.8,1233.6,527.2,1235,527.4
		L1235,527.4z"/>
	<path class="st6" d="M1249.1,558.7c0.5-0.3,1.2-2.5,1.6-4.2l-1.2-0.3c-1.2,0.8-2.9,2.4-3.7,3.2c-1.4,1.5-13.5,1.3-15.3-0.9
		s-24.8-11-27.8-11.2c-3-0.1-11.4-5.9-13.4-7.7c-0.3-0.3-0.6-0.5-0.8-0.7l-1.8-0.5c-0.1,0-0.2-0.1-0.4-0.1c-0.7,0.9-0.5,3-0.3,3.5
		s8.1,5.3,11.3,7s45.1,20.7,46.6,20.4c1.5-0.2,2.3-1.5,2.6-2.2C1247.1,564.6,1249.1,559.9,1249.1,558.7L1249.1,558.7z"/>
	<path d="M1221.5,544.4c-3.8-2.1,0.8-6.5,1.7-7c-3.9,0.3-8.3,1.4-9.2,4c-0.6,1.8-1,4.3,3.1,6.1s31.2,2.4,31.2,2.4
		S1226.6,547.3,1221.5,544.4L1221.5,544.4z"/>
	<text transform="matrix(1 0 0 1 1094.8834 374.634)" class="st7 st8">Game 2</text>
</g>
<g id="game1_1_">
	
		<image style="overflow:visible;enable-background:new    ;" width="238" height="86" xlink:href="E311E50E3ECB6C3F.png"  transform="matrix(1 0 0 1 60 509)">
	</image>
	<path class="st0" d="M104.4,482.5c-7,5,4.7,8.7-2,17s-0.3,10-0.3,10"/>
	<path class="st1" d="M166.5,545.6h38.7l-9.3-13.9l13.9-58.3h-43.3"/>
	<path class="st2" d="M191.7,545.6H153l9.3-13.9l-13.9-58.3h43.3"/>
	<path class="st3" d="M180.3,281.7c49,0,63.4,34.5,59.8,52.1c25.3,0,65.8,32.3,36.5,76.9c22,34.7,24.9,77.2-26.2,82.3
		s-48.5-9-48.5-9s-10.2,4-21.6,4.9"/>
	<path class="st4" d="M180.3,281.7c-49,0-63.4,34.5-59.8,52.1c-37.9-12.4-61.9,54.1-24.6,77.6c-44.3,5.7-36.7,76.5,14.3,81.7
		s47-5,47-5s12.7,1,23.1,0.9"/>
	<path class="st9" d="M101.3,508.6c0.6-0.2,0.6,0.5,1,0.7s1.8,1,2,1.5s0.3,2.3,0,2.8c0.7,0.6,3.4,3,5.2,3.2s3.3-0.2,3.8-0.5
		s1.7-1.6,1.9-2.2s0.9-1.8,1.4-1.7s0.6,0,0.6,0.3s0.4,0.1,0.5,0.4s1,2.3,1,4.1c-0.2,0.4,0.5,2.3,0.4,2.6s-0.3-0.3-0.4,0
		s0.8,4.3,0.4,4.8c0.4,0.8,0.4,4.3,0.1,4.7c0,0.5-0.1,1.5-1,2.1s-33.1,0.2-35.6,0s-8.9-1.1-9.2-1.3s-1-1.5-0.8-2.3s0.2-1.6,0.4-1.6
		s-0.2-0.3,0-0.4s0.3-0.4,0.4-0.3s0.3-1.7,0.7-1.9s0.2-0.4,0.8-0.5s8.6-1.7,8.7-2s0.3-0.6,0.5-0.6s1.6-0.3,1.6-0.5s0.1-0.8,0.8-0.9
		s0.6,0.2,0.7,0.4s0.2,0.3,0.5-0.1s0.3-1.1,0.7-1.3s0.9-0.7,1-0.5s0.1,0.6,0.3,0.4s-0.1-0.1,0.6-0.8s1.5-1,1.5-0.9s0.5,0.3,0.5-0.1
		s0-0.5,0.5-0.7s0.6-0.2,0.7,0s0,0.8,0.3,0s1.3-1.3,1.4-1s0-0.8,0.4-1s0.7,0.1,0.8-0.2s0.8-0.9,1.2-1
		C98.5,510.9,100.4,508.9,101.3,508.6L101.3,508.6z"/>
	<path class="st10" d="M119.1,524.7c0.3-0.3,0.1-1.9-0.1-3.2l-0.9,0.1c-0.5,0.8-1.2,2.3-1.5,3.1c-0.5,1.3-8.3,4.6-10.1,3.7
		s-19-0.1-21,0.6c-2,0.8-8.9-0.6-10.7-1.2c-0.3-0.1-0.5-0.2-0.7-0.2l-1.3,0.2h-0.3c-0.2,0.8,0.5,2.1,0.8,2.3s6.7,1.1,9.2,1.3
		s34.7,0.6,35.6,0s1-1.6,1-2.1C119.5,529.1,119.5,525.5,119.1,524.7L119.1,524.7z"/>
	<path d="M97.5,523.3c-3-0.3-1.3-4.4-0.9-5c-2.4,1.3-4.9,3.2-4.8,5.2c0.1,1.3,0.6,3,3.7,3s20.7-7.2,20.7-7.2S101.6,523.7,97.5,523.3
		z"/>
	<text transform="matrix(1 0 0 1 135.785 394.24)" class="st7 st11">Game 1</text>
</g>
<g id="shoe">
	<path class="st12" d="M121.3,623.1c1.3-0.6,1.7,0.9,2.7,1.2c1,0.4,4.8,1.8,5.4,2.9s1.8,5.6,1.1,6.8c1.9,1.2,9.6,6,14,5.7
		s8-1.8,9.1-2.6s3.6-4.6,3.7-6.1c0.2-1.5,1.4-4.7,2.8-4.8c1.3-0.1,1.4-0.2,1.6,0.5c0.1,0.8,0.9,0,1.5,0.9s3.3,5.2,4.1,9.6
		c-0.3,1.1,2.1,5.3,2.1,6.3c-0.1,1-0.9-0.6-0.9,0.2s3.7,10.2,2.9,11.7c1.2,1.7,2.6,10.5,2.2,11.5c0.2,1.3,0.3,3.8-1.7,5.6
		s-81.1,13.8-87.3,14.2c-6.2,0.5-22.3,0.9-23.1,0.4s-3-3.4-2.9-5.4s-0.1-4,0.3-4.1c0.4-0.2-0.5-0.5-0.2-1s0.6-1,0.9-1
		c0.3,0.1,0-4.2,1-4.9c0.9-0.7,0.4-1,1.7-1.7c1.4-0.6,20.4-7.6,20.5-8.3c0.1-0.6,0.5-1.6,1-1.7c0.5-0.2,3.9-1.3,3.8-2s0-2,1.6-2.5
		s1.6,0.3,1.8,0.7c0.2,0.4,0.5,0.5,1.1-0.5s0.3-2.8,1.1-3.5c0.8-0.8,1.9-2.1,2.3-1.5s0.6,1.5,1,0.9s-0.2-0.2,1.1-2.2
		c1.4-2,3.4-3.2,3.4-2.9c0.1,0.3,1.3,0.6,1.2-0.5s-0.3-1.1,1.1-1.9s1.5-0.8,1.7-0.4s0.2,1.9,0.6-0.2s2.7-3.6,3-3.1s-0.3-1.9,0.6-2.5
		s1.7-0.1,2-0.7c0.3-0.7,1.6-2.6,2.6-2.8C115.3,629.8,119.2,624,121.3,623.1L121.3,623.1z"/>
	<path class="st6" d="M171.4,655.4c0.5-0.9-0.6-4.7-1.6-7.7l-2,0.6c-1,2.3-2,6.2-2.4,8.2c-0.6,3.4-18.4,14.6-23.2,13.1
		c-4.7-1.5-46.6,7.3-51.2,10c-4.5,2.6-22.1,2.2-26.8,1.4c-0.7-0.1-1.3-0.2-1.8-0.3l-3.2,1c-0.2,0.1-0.4,0.1-0.7,0.2
		c-0.1,2,2.1,4.9,2.9,5.4c0.8,0.5,16.9,0.1,23.1-0.4c6.2-0.5,85.3-12.4,87.3-14.2s1.9-4.3,1.7-5.6
		C174.1,665.9,172.6,657.1,171.4,655.4z"/>
	<path d="M117.7,660.7c-7.5,0.5-5-10.1-4.2-11.8c-5.4,4.2-10.7,9.8-9.6,14.6c0.7,3.2,2.6,7.2,10.3,5.9c7.7-1.2,47.8-26,47.8-26
		S128,660,117.7,660.7z"/>
</g>
<g id="custom">
	<path class="st0" d="M843.5,437c-13.3,9.5,8.8,16.4-3.8,32.2s-0.6,18.9-0.6,18.9"/>
	<path class="st13" d="M837.7,445.8H570.8c-6.6,0-12-5.4-12-12v-81.1c0-6.6,5.4-12,12-12h266.9c6.6,0,12,5.4,12,12v81.1
		C849.7,440.4,844.3,445.8,837.7,445.8L837.7,445.8z"/>
	<path class="st14" d="M590.1,365.2h228.3V463H590.1V365.2z"/>
	<text transform="matrix(1 0 0 1 612.33 387.062)" class="st15 st7 st16">Customize Your </text>
	<text transform="matrix(1 0 0 1 676.33 418.862)" class="st15 st7 st16">Shoe</text>
	<path class="st17" d="M812.5,504.8c0.5-1,1.4-0.4,2.2-0.7s3.7-1.4,4.6-1c0.9,0.3,3.8,2.3,4,3.3c1.7-0.3,8.5-1.4,10.9-3.7
		c2.4-2.4,3.7-5.1,3.9-6.1s-0.2-4.4-0.9-5.4s-1.5-3.4-0.8-4.1s0.7-0.9,1.2-0.5s0.5-0.5,1.3-0.3s4.5,1.3,7.2,3.5
		c0.4,0.8,3.9,2,4.3,2.6c0.4,0.6-0.8,0.1-0.5,0.5c0.4,0.4,7.3,4,7.5,5.3c1.5,0.4,6.8,4.7,7,5.5c0.8,0.7,2.1,2.1,1.8,4.1
		s-39.8,48.5-43.1,51.9s-12.4,11.7-13.1,11.8s-3.4-0.5-4.4-1.7s-2.1-2.2-1.9-2.5c0.1-0.3-0.6-0.1-0.6-0.5s-0.2-0.9,0-1
		s-2.1-2.4-1.9-3.3s-0.3-0.8,0.2-1.8s7.9-14.6,7.7-15.1c-0.3-0.4-0.5-1.1-0.3-1.5s1.6-2.7,1.2-3c-0.4-0.4-1-1.1-0.3-2.2
		s1.1-0.7,1.4-0.5c0.3,0.1,0.6,0.1,0.4-0.8c-0.2-0.9-1.2-1.7-1.1-2.6s0-2.1,0.5-2s1.1,0.6,1,0s-0.2,0-0.4-1.8s0.3-3.5,0.5-3.4
		c0.2,0.2,1-0.3,0.4-0.9c-0.6-0.6-0.7-0.5-0.3-1.6s0.5-1.2,0.8-1.1c0.3,0.1,1,1,0.2-0.4s-0.3-3.4,0.1-3.3c0.4,0.1-1.2-1-0.9-1.8
		s0.9-0.9,0.8-1.4s-0.4-2.3,0.1-2.9C812.4,511.8,811.7,506.5,812.5,504.8L812.5,504.8z"/>
	<path class="st18" d="M857.5,498.4c-0.2-0.8-2.7-2.4-4.8-3.6l-0.9,1.4c0.5,1.8,2,4.6,2.8,5.9c1.4,2.3-3.3,17.6-6.8,19.1
		s-23.2,27.6-24.4,31.3c-1.3,3.8-11.6,12.3-14.7,14.2c-0.5,0.3-0.9,0.5-1.2,0.7l-1.3,2.2c-0.1,0.1-0.2,0.3-0.3,0.4
		c1,1.2,3.7,1.8,4.4,1.7s9.7-8.4,13.1-11.8c3.3-3.4,42.8-49.9,43.1-51.9s-1.1-3.4-1.8-4.1C864.3,503.1,859.1,498.7,857.5,498.4
		L857.5,498.4z"/>
	<path d="M829.3,528.3c-4.1,4.1-7.9-3.3-8.3-4.7c-1,5.1-1.3,11,1.8,13.2c2,1.5,5.1,2.8,8.9-1.7s14.5-38.9,14.5-38.9
		S834.8,522.8,829.3,528.3z"/>
</g>
<g id="about">
	<path class="st0" d="M433,491.8c-11.7,8.4,7.8,14.5-3.3,28.5s-0.5,16.7-0.5,16.7 M445.9,614.2c-11.7,8.4,7.8,14.5-3.3,28.5
		s-0.5,16.7-0.5,16.7"/>
	<path class="st1" d="M361.7,679.9h46.1l-11.1-16.6l16.6-69.5h-51.6"/>
	<path class="st2" d="M391.7,679.9h-46.1l11.1-16.6l-16.6-69.5h51.6"/>
	<path class="st3" d="M378.1,365c58.4,0,75.7,41.2,71.3,62.1c30.1,0,78.5,38.5,43.5,91.8c26.3,41.4,29.7,92.1-31.2,98.2
		c-60.9,6.2-57.9-10.7-57.9-10.7s-12.1,4.8-25.8,5.8"/>
	<path class="st4" d="M378.1,365c-58.4,0-75.7,41.2-71.3,62.1c-45.3-14.8-73.9,64.6-29.3,92.6c-52.9,6.8-43.8,91.3,17,97.4
		c60.9,6.2,56.1-6,56.1-6s15.1,1.2,27.5,1"/>
	
		<image style="overflow:visible;enable-background:new    ;" width="269" height="89" xlink:href="E311E50E3ECB6C3A.png"  transform="matrix(1 0 0 1 242 643)">
	</image>
	<path class="st19" d="M444.2,660.6c0.6,0.7-0.3,1.2-0.3,1.8c-0.1,0.7-0.3,3.2-0.9,3.7c-0.5,0.5-3.1,2-3.9,1.8
		c-0.4,1.3-2.1,6.7-1.2,9.3s2.4,4.5,3.1,5.1c0.7,0.5,3.3,1.4,4.3,1.3c0.9-0.1,3,0.1,3.3,0.9s0.4,0.8-0.1,1s0.2,0.6-0.3,1
		c-0.4,0.5-2.6,2.8-5.1,4c-0.7,0-2.9,2.1-3.4,2.3s0.2-0.7-0.2-0.5s-5.6,3.9-6.6,3.6c-0.8,1-5.9,3.3-6.6,3.2
		c-0.8,0.3-2.3,0.8-3.7-0.1s-21.3-46.5-22.6-50.2c-1.3-3.7-4.1-13.2-4-13.8c0.2-0.6,1.6-2.3,2.8-2.6s2.4-0.7,2.5-0.5
		c0.2,0.2,0.2-0.4,0.6-0.3c0.3,0.1,0.7,0.2,0.7,0.4s2.5-0.6,3.1-0.2c0.6,0.5,0.7,0.1,1.3,0.8c0.6,0.7,7.9,11,8.3,11s1,0,1.2,0.3
		s1.4,2.1,1.8,2c0.4-0.2,1.2-0.3,1.7,0.6c0.5,0.9,0.1,1-0.1,1.2s-0.2,0.4,0.5,0.6c0.7,0.2,1.7-0.3,2.3,0.1c0.6,0.4,1.6,0.8,1.3,1.1
		c-0.3,0.3-0.8,0.6-0.4,0.7c0.4,0.2,0.1-0.2,1.5,0.3s2.5,1.5,2.3,1.6s-0.2,0.9,0.5,0.6c0.7-0.2,0.6-0.4,1.3,0.3
		c0.7,0.7,0.7,0.8,0.5,1s-1.1,0.4,0.2,0.3c1.3-0.1,2.6,1,2.3,1.3c-0.2,0.3,1.1-0.5,1.6,0s0.3,1,0.8,1.1s1.8,0.5,2.1,1.1
		C439.1,658.1,443.2,659.5,444.2,660.6L444.2,660.6z"/>
	<path class="st20" d="M432.8,695.9c0.6,0.2,2.7-1.1,4.4-2.2l-0.7-1.1c-1.5-0.2-4.1-0.2-5.3-0.1c-2.2,0.2-11.7-8.7-11.6-11.8
		c0.2-3.1-11.9-26.8-14.2-29.2c-2.3-2.3-4.9-13-5.1-15.9c0-0.5-0.1-0.8-0.1-1.1l-1.1-1.8c-0.1-0.1-0.1-0.2-0.2-0.4
		c-1.2,0.3-2.6,2-2.8,2.6c-0.2,0.6,2.7,10.1,4,13.8s21.2,49.3,22.6,50.2s2.9,0.5,3.7,0.1C426.9,699.2,432,696.9,432.8,695.9
		L432.8,695.9z"/>
	<path d="M421,664.5c-1.5-4.5,5.3-4.6,6.4-4.4c-3.4-2.6-7.6-4.9-10.3-3.4c-1.8,0.9-3.9,2.7-1.9,7.2c2,4.4,23.3,24.5,23.3,24.5
		S423,670.5,421,664.5z"/>
	<path class="st14" d="M267.4,479.6h218.9v73.7H267.4V479.6z"/>
	<text transform="matrix(1 0 0 1 303.768 507.268)" class="st7 st21">About the </text>
	<text transform="matrix(1 0 0 1 337.168 547.468)" class="st7 st21">Team</text>
</g>
<g id="tree3">
	<path class="st1" d="M979.6,706.8h27.6l-6.6-9.9l9.9-41.5h-30.9"/>
	<path class="st2" d="M997.6,706.8H970l6.6-9.9l-9.9-41.5h30.9"/>
	<path class="st3" d="M989.4,518.8c34.9,0,45.2,24.6,42.6,37.1c18,0,46.9,23,26,54.8c15.7,24.7,17.7,55-18.6,58.7
		c-36.4,3.7-34.5-6.4-34.5-6.4s-7.3,2.8-15.4,3.5"/>
	<path class="st4" d="M989.4,518.8c-34.9,0-45.2,24.6-42.6,37.1c-27-8.8-44.1,38.5-17.5,55.3c-31.6,4-26.2,54.5,10.2,58.2
		s33.5-3.6,33.5-3.6s9,0.7,16.4,0.6"/>
	
		<image style="overflow:visible;enable-background:new    ;" width="191" height="83" xlink:href="E311E50E3ECB6C3B.png"  transform="matrix(1 0 0 1 893 670)">
	</image>
	<path class="st22" d="M937.7,695.2c0.6-0.2,0.6,0.5,1,0.7s1.8,1,2,1.5s0.3,2.3,0,2.8c0.7,0.6,3.4,3,5.2,3.2s3.3-0.2,3.8-0.5
		s1.7-1.6,1.9-2.2s0.9-1.8,1.4-1.7s0.6,0,0.6,0.3s0.4,0.1,0.5,0.4s1,2.3,1,4.1c-0.2,0.4,0.5,2.3,0.4,2.6s-0.3-0.3-0.4,0
		s0.8,4.3,0.4,4.8c0.4,0.8,0.4,4.3,0.1,4.7c0,0.5-0.1,1.5-1,2.1s-33.1,0.2-35.6,0s-8.9-1.1-9.2-1.3s-1-1.5-0.8-2.3s0.2-1.6,0.4-1.6
		s-0.2-0.3,0-0.4s0.3-0.4,0.4-0.3s0.3-1.7,0.7-1.9s0.2-0.4,0.8-0.5s8.6-1.7,8.7-2s0.3-0.6,0.5-0.6s1.6-0.3,1.6-0.5s0.1-0.8,0.8-0.9
		s0.6,0.2,0.7,0.4s0.2,0.3,0.5-0.1s0.3-1.1,0.7-1.3s0.9-0.7,1-0.5s0.1,0.6,0.3,0.4s-0.1-0.1,0.6-0.8s1.5-1,1.5-0.9s0.5,0.3,0.5-0.1
		s0-0.5,0.5-0.7s0.6-0.2,0.7,0s0,0.8,0.3,0s1.3-1.3,1.4-1s0-0.8,0.4-1s0.7,0.1,0.8-0.2s0.8-0.9,1.2-1
		C934.9,697.5,936.8,695.4,937.7,695.2L937.7,695.2z"/>
	<path class="st22" d="M955.5,711.3c0.3-0.3,0.1-1.9-0.1-3.2l-0.9,0.1c-0.5,0.8-1.2,2.3-1.5,3.1c-0.5,1.3-8.3,4.6-10.1,3.7
		c-1.8-0.9-19-0.1-21,0.6c-2,0.8-8.9-0.6-10.7-1.2c-0.3-0.1-0.5-0.2-0.7-0.2l-1.3,0.2h-0.3c-0.2,0.8,0.5,2.1,0.8,2.3
		s6.7,1.1,9.2,1.3s34.7,0.6,35.6,0c0.9-0.6,1-1.6,1-2.1C955.9,715.6,955.9,712,955.5,711.3L955.5,711.3z"/>
	<path d="M933.8,709.9c-3-0.3-1.3-4.4-0.9-5c-2.4,1.3-4.9,3.2-4.8,5.2c0.1,1.3,0.6,3,3.7,3s20.7-7.2,20.7-7.2
		S937.9,710.3,933.8,709.9z"/>
</g>
<path class="st0" d="M841.6,435.9c-13.2,9.4,8.8,16.3-3.8,32c-12.5,15.7-0.6,18.8-0.6,18.8"/>
<linearGradient id="SVGID_1_" gradientUnits="userSpaceOnUse" x1="703.2885" y1="444.6189" x2="703.2885" y2="340.2203">
	<stop  offset="0" style="stop-color:#FBB03B"/>
	<stop  offset="2.387170e-03" style="stop-color:#F5AD3B"/>
	<stop  offset="2.305773e-02" style="stop-color:#C7943B"/>
	<stop  offset="4.606725e-02" style="stop-color:#9D7C3A"/>
	<stop  offset="7.110845e-02" style="stop-color:#77673A"/>
	<stop  offset="9.833312e-02" style="stop-color:#57553A"/>
	<stop  offset="0.1284" style="stop-color:#3B463A"/>
	<stop  offset="0.1624" style="stop-color:#253A3A"/>
	<stop  offset="0.2021" style="stop-color:#14313A"/>
	<stop  offset="0.2512" style="stop-color:#092A3A"/>
	<stop  offset="0.32" style="stop-color:#02273A"/>
	<stop  offset="0.5111" style="stop-color:#00263A"/>
	<stop  offset="0.6938" style="stop-color:#02273A"/>
	<stop  offset="0.7597" style="stop-color:#092A3A"/>
	<stop  offset="0.8066" style="stop-color:#14313A"/>
	<stop  offset="0.8446" style="stop-color:#253A3A"/>
	<stop  offset="0.8771" style="stop-color:#3B463A"/>
	<stop  offset="0.9059" style="stop-color:#57553A"/>
	<stop  offset="0.932" style="stop-color:#77673A"/>
	<stop  offset="0.9559" style="stop-color:#9D7C3A"/>
	<stop  offset="0.9779" style="stop-color:#C7943B"/>
	<stop  offset="0.9977" style="stop-color:#F5AD3B"/>
	<stop  offset="1" style="stop-color:#FBB03B"/>
</linearGradient>
<path class="st23" d="M835.8,444.6h-265c-6.6,0-12-5.4-12-12v-80.4c0-6.6,5.4-12,12-12h265c6.6,0,12,5.4,12,12v80.4
	C847.8,439.2,842.4,444.6,835.8,444.6z"/>
<rect x="589.9" y="364.6" class="st14" width="226.8" height="97.2"/>
<text transform="matrix(1 0 0 1 592.4404 390.9375)"><tspan x="0" y="0" class="st24 st7 st25">Customize Your </tspan><tspan x="77.1" y="38.4" class="st24 st7 st25">Shoe</tspan></text>
<path class="st26" d="M810.9,503.3c0.5-1,1.4-0.4,2.2-0.6s3.7-1.3,4.5-1c0.9,0.3,3.8,2.3,4,3.3c1.7-0.3,8.5-1.3,10.8-3.7
	c2.4-2.3,3.7-5,3.9-6.1c0.2-1-0.2-4.4-0.9-5.3c-0.6-0.9-1.5-3.4-0.8-4.1c0.7-0.7,0.7-0.8,1.2-0.5s0.5-0.5,1.3-0.3
	c0.7,0.2,4.4,1.3,7.1,3.5c0.4,0.8,3.9,2,4.3,2.6c0.4,0.6-0.8,0.1-0.5,0.5c0.4,0.4,7.2,4,7.5,5.3c1.5,0.4,6.7,4.7,7,5.5
	c0.8,0.7,2.1,2,1.8,4.1c-0.3,2-39.5,48.2-42.8,51.6s-12.3,11.6-13,11.7c-0.7,0.1-3.4-0.5-4.3-1.7c-0.9-1.2-2-2.2-1.9-2.5
	c0.1-0.3-0.6-0.1-0.6-0.5c0-0.4-0.2-0.9,0-1c0.2-0.1-2.1-2.4-1.9-3.3s-0.3-0.8,0.2-1.8c0.5-1,7.9-14.5,7.6-15
	c-0.3-0.4-0.5-1.1-0.3-1.5c0.2-0.4,1.6-2.7,1.2-3c-0.4-0.4-1-1.1-0.3-2.2c0.7-1.1,1.1-0.7,1.3-0.5s0.6,0.1,0.4-0.8
	c-0.2-0.9-1.2-1.7-1.1-2.6c0.1-0.8,0-2.1,0.5-2c0.5,0.1,1.1,0.6,1,0c-0.1-0.6-0.2,0-0.4-1.8s0.3-3.5,0.5-3.3c0.2,0.2,1-0.3,0.4-0.9
	c-0.6-0.6-0.7-0.5-0.3-1.6c0.4-1.1,0.5-1.2,0.8-1.1c0.3,0.1,1,1,0.2-0.4c-0.8-1.4-0.3-3.4,0.1-3.3c0.4,0.1-1.2-1-0.9-1.8
	c0.3-0.8,0.9-0.9,0.8-1.4c-0.2-0.5-0.4-2.3,0.1-2.9C810.8,510.2,810.1,504.9,810.9,503.3z"/>
<path class="st27" d="M855.6,496.8c-0.2-0.8-2.7-2.4-4.8-3.6c0,0,0,0,0,0l-0.9,1.4c0.5,1.8,2,4.6,2.7,5.9c1.3,2.3-3.3,17.5-6.8,19
	c-3.5,1.5-23,27.4-24.3,31.1c-1.3,3.8-11.6,12.3-14.6,14.1c-0.5,0.3-0.9,0.5-1.1,0.7l-1.3,2.1c-0.1,0.1-0.2,0.3-0.3,0.4
	c0.9,1.2,3.6,1.8,4.3,1.7c0.7-0.1,9.7-8.3,13-11.7s42.5-49.5,42.8-51.6c0.3-2-1-3.4-1.8-4.1C862.3,501.5,857.1,497.2,855.6,496.8z"
	/>
<path d="M827.5,526.6c-4.1,4-7.9-3.3-8.3-4.6c-1,5.1-1.2,11,1.8,13.2c2,1.4,5.1,2.8,8.8-1.7c3.8-4.5,14.4-38.6,14.4-38.6
	S833,521.1,827.5,526.6z"/>
</svg>
